<svg width="32" height="32" viewBox="0 0 32 32" fill="none" xmlns="http://www.w3.org/2000/svg">
  <rect width="32" height="32" rx="8" fill="#1a181a"/>
  <path d="M16 8C12.13 8 9 11.13 9 15V23C9 23.55 9.45 24 10 24H22C22.55 24 23 23.55 23 23V15C23 11.13 19.87 8 16 8ZM16 10C17.98 10 19.69 11.3 20.5 13.12C19.74 13.05 19 13 18 13H14C13 13 12.26 13.05 11.5 13.12C12.31 11.3 14.02 10 16 10ZM21 22H11V15C11 14.46 11.08 13.94 11.21 13.44C12.25 13.31 13.41 13 14 13H18C18.59 13 19.75 13.31 20.79 13.44C20.92 13.94 21 14.46 21 15V22Z" fill="white"/>
  <path d="M16 17C16.5523 17 17 16.5523 17 16C17 15.4477 16.5523 15 16 15C15.4477 15 15 15.4477 15 16C15 16.5523 15.4477 17 16 17Z" fill="white"/>
</svg>